<mxfile host="app.diagrams.net" modified="2024-05-05T02:32:17.789Z" agent="Mozilla/5.0 (Macintosh; Intel Mac OS X 10_15_7) AppleWebKit/537.36 (KHTML, like Gecko) Chrome/124.0.0.0 Safari/537.36" version="24.2.7" etag="R9Faa5Sxj0Ruduw_aU1o" type="github">
  <diagram name="第 1 页" id="qSryeNhu1eiWfbpPE8DQ">
    <mxGraphModel>
      <root>
        <mxCell id="0" />
        <mxCell id="1" parent="0" />
      </root>
    </mxGraphModel>
  </diagram>
</mxfile>
